<svg xmlns="http://www.w3.org/2000/svg" viewBox="0 0 200 48" fill="none">
  <rect x="2" y="8" width="32" height="32" rx="8" fill="#1A2332"/>
  <path d="M12 18c0-1.1.9-2 2-2s2 .9 2 2v4.5l4-4c.8-.8 2-.8 2.8 0 .8.8.8 2 0 2.8l-4 4 4 4c.8.8.8 2 0 2.8-.8.8-2 .8-2.8 0l-4-4V34c0 1.1-.9 2-2 2s-2-.9-2-2V18z" fill="#B87D4B"/>
  <text x="44" y="22" font-family="ui-rounded, SF Pro Rounded, Segoe UI, system-ui, sans-serif" font-size="16" font-weight="800" fill="#1A2332" letter-spacing=".04em">NORTH</text>
  <text x="44" y="38" font-family="ui-rounded, SF Pro Rounded, Segoe UI, system-ui, sans-serif" font-size="12" font-weight="600" fill="#5a6575" letter-spacing=".14em">BARBERSHOP</text>
</svg>
